<?xml version="1.0" encoding="UTF-8"?>
<svg width="18px" height="18px" viewBox="0 0 18 18" version="1.1" xmlns="http://www.w3.org/2000/svg" xmlns:xlink="http://www.w3.org/1999/xlink">
    <!-- Generator: Sketch 56.3 (81716) - https://sketch.com -->
    <title>SVG/基础控件/ico_close</title>
    <desc>Created with Sketch.</desc>
    <g id="基础控件/ico_close" stroke="none" stroke-width="1" fill="none" fill-rule="evenodd">
        <path d="M10.6369538,9.00162113 L17.6608163,1.97886521 C18.1130612,1.52494746 18.1130612,0.794356049 17.6608163,0.340438307 C17.2085713,-0.113479436 16.4750255,-0.113479436 16.0227805,0.340438307 L8.99891807,7.36319424 L1.97721945,0.340438307 C1.52497445,-0.113479436 0.791428743,-0.113479436 0.339183747,0.340438307 C-0.113061249,0.794356049 -0.113061249,1.52494746 0.339183747,1.97886521 L7.36088237,8.99945962 L0.339183747,16.0222156 C-0.113061249,16.4761333 -0.113061249,17.2067247 0.339183747,17.6606424 C0.564224319,17.8876013 0.860671996,18 1.15928352,18 C1.4557312,18 1.75217888,17.8876013 1.9793833,17.6606424 L8.99891807,10.640048 L16.0206167,17.6606424 C16.2456573,17.8876013 16.5442688,18 16.8407165,18 C17.1371642,18 17.4336118,17.8876013 17.6586524,17.6606424 C18.1108974,17.2067247 18.1108974,16.4761333 17.6586524,16.0222156 L10.6369538,9.00162113 Z" id="路径" fill="#16336B" fill-rule="nonzero"></path>
    </g>
</svg>